<svg xmlns="http://www.w3.org/2000/svg" viewBox="0 0 29.09 29.09"><defs><style>.cls-1{fill:#00aeef;}</style></defs><title>Asset 6</title><g id="Layer_2" data-name="Layer 2"><g id="Layer_1-2" data-name="Layer 1"><path class="cls-1" d="M9.07,1.06a14.62,14.62,0,0,0-4.81,3.2A14.54,14.54,0,0,0,9.07,28a14.55,14.55,0,0,0,20-13.48A14.55,14.55,0,0,0,24.83,4.26,14.59,14.59,0,0,0,9.07,1.06ZM3.63,20.67a9.82,9.82,0,0,1-1.91-1.55,13.72,13.72,0,0,1-.45-7.64,13.48,13.48,0,0,1,.94-1.54c.1-.15.2-.31.32-.46l3.28,1.94v.08a25,25,0,0,0,.53,5.25v0l-2.54,4Zm9.76,6.74a11.56,11.56,0,0,0,1.75.73,13.67,13.67,0,0,1-7.38-1.78l5.5,1Zm0-1L6.88,25.26a20.49,20.49,0,0,1-2-2.94,7.74,7.74,0,0,1-.44-.8l2.54-4,.19,0a41.87,41.87,0,0,0,4.84,1l.24,0,3,5.27c-.53.74-1.06,1.48-1.61,2.21C13.57,26.19,13.47,26.3,13.37,26.42Zm10.81-2.25a13.37,13.37,0,0,1-1.64,1.4,12.19,12.19,0,0,0-.5-2.23l3.26-6.07a15.7,15.7,0,0,0,2.56-1.44,1.55,1.55,0,0,0,.26-.25A13.58,13.58,0,0,1,24.18,24.17ZM24,16.31l.36.7-3.14,5.86H21.2a29.53,29.53,0,0,1-5.14.49L12.93,18l1.45-2.73,1-1.86,6.49-.66A34.75,34.75,0,0,1,24,16.31ZM22.71,9.36c-.3.81-.63,1.61-1,2.42l-6.32.65a3.36,3.36,0,0,0-.24-.29c-.74-.85-1.49-1.69-2.24-2.53l0,0-.91-.91,1.76-5.3a2.29,2.29,0,0,1,.36-.07c1-.1,1.92-.21,2.88-.26a11.61,11.61,0,0,1,1.77,0l4.36,4.9C23,8.42,22.89,8.89,22.71,9.36Zm1.47-4.45A13.34,13.34,0,0,1,27,9a14.07,14.07,0,0,0-2.59-1.4l-.44-.16L19.64,2.56c0-.21.05-.41.06-.63A13.77,13.77,0,0,1,24.18,4.91Zm-14-3.23,0,0a10.62,10.62,0,0,1,2.71,1.42l-1.65,5h0c-.34.14-.68.27-1,.42A27.81,27.81,0,0,0,6.3,10.64L3.06,8.72a1,1,0,0,1,0-.3c.22-.58.44-1.16.68-1.73a13.71,13.71,0,0,1,.64-1.27l.48-.51a13.57,13.57,0,0,1,5.3-3.28Z"/></g></g></svg>