<svg xmlns="http://www.w3.org/2000/svg" viewBox="0 0 29.01 28.68"><defs><style>.cls-1{fill:#00aeef;}</style></defs><title>Asset 141</title><g id="Layer_2" data-name="Layer 2"><g id="Layer_1-2" data-name="Layer 1"><path class="cls-1" d="M11.81,12.51H.7a.7.7,0,0,1-.7-.7V.7A.7.7,0,0,1,.7,0H11.81a.7.7,0,0,1,.7.7V11.81A.71.71,0,0,1,11.81,12.51ZM1.4,11.11h9.71V1.4H1.4Z"/><path class="cls-1" d="M11.81,28.68H.7A.7.7,0,0,1,0,28V16.87a.7.7,0,0,1,.7-.7H11.81a.7.7,0,0,1,.7.7V28A.71.71,0,0,1,11.81,28.68ZM1.4,27.28h9.71V17.57H1.4Z"/><path class="cls-1" d="M28.31,28.68H17.2a.7.7,0,0,1-.7-.7V16.87a.7.7,0,0,1,.7-.7H28.31a.7.7,0,0,1,.7.7V28A.71.71,0,0,1,28.31,28.68ZM17.9,27.28h9.71V17.57H17.9Z"/><path class="cls-1" d="M28.31,7.28H17.2a.7.7,0,1,1,0-1.4H28.31a.7.7,0,0,1,0,1.4Z"/><path class="cls-1" d="M28.31,7.28H17.2a.7.7,0,1,1,0-1.4H28.31a.7.7,0,0,1,0,1.4Z"/><path class="cls-1" d="M22.75,12.84a.71.71,0,0,1-.7-.7V1a.7.7,0,0,1,1.4,0V12.14A.7.7,0,0,1,22.75,12.84Z"/><path class="cls-1" d="M22.75,12.84a.71.71,0,0,1-.7-.7V1a.7.7,0,0,1,1.4,0V12.14A.7.7,0,0,1,22.75,12.84Z"/></g></g></svg>