<svg xmlns="http://www.w3.org/2000/svg" viewBox="0 0 29.99 49.96"><defs><style>.cls-1{fill:#00aeef;}.cls-2{fill:#fff;}</style></defs><title>Asset 33</title><g id="Layer_2" data-name="Layer 2"><g id="Layer_1-2" data-name="Layer 1"><path class="cls-1" d="M2.89,44.6S-.62,41.81.1,33.83s2.79-6.75,2.38-11.78A12.67,12.67,0,0,0,.25,15.5l2.26,1.66C6.7,21.15,7.56,25,7.56,25s1.14-1.33-.76-5c-.19-.37.83.24,1.57,1a4.9,4.9,0,0,1,.87,1.29s.53-1.37,0-5.71S8.3,10.52,13,4.76,17.34.08,17.34.08s-1.7,8-.71,12,3.54,6.23,4.49,7.42c2.64,3.27,3,10.17,3,10.17s2.28-.36,2.89-7.89c.11-1.27,3.2,8.42,3,12.12s-.49,9.33-5.44,13.1S9.06,51.89,2.89,44.6Z"/><path class="cls-2" d="M7.56,44.65S5.41,42.94,5.84,38s1.72-4.15,1.47-7.24a7.81,7.81,0,0,0-1.37-4l1.38,1a10.63,10.63,0,0,1,3.11,4.78s.7-.82-.47-3.09c-.12-.23.51.15,1,.61a2.82,2.82,0,0,1,.53.79,8.51,8.51,0,0,0,0-3.51c-.33-2.66-.58-3.66,2.29-7.2s2.68-2.87,2.68-2.87-1,4.89-.43,7.36a10.37,10.37,0,0,0,2.76,4.55c1.62,2,1.83,6.25,1.83,6.25s1.4-.22,1.78-4.84c.06-.78,2,5.17,1.82,7.44s-.3,5.73-3.34,8S11.35,49.13,7.56,44.65Z"/></g></g></svg>