<svg xmlns="http://www.w3.org/2000/svg" viewBox="0 0 36.64 30.06"><defs><style>.cls-1{fill:#00aeef;fill-rule:evenodd;}</style></defs><title>Asset 25</title><g id="Layer_2" data-name="Layer 2"><g id="Layer_1-2" data-name="Layer 1"><g id="Shopping_cart" data-name="Shopping cart"><path class="cls-1" d="M14.22,22.92a3.57,3.57,0,1,0,3.57,3.57A3.57,3.57,0,0,0,14.22,22.92Zm0,5.67a2.1,2.1,0,1,1,2.1-2.1A2.11,2.11,0,0,1,14.22,28.59ZM36.3,3a2,2,0,0,0-1.76-.79c-1.65,0-23.17,0-23.35,0h0a.76.76,0,0,0-.76.76.77.77,0,0,0,.76.77c.73,0,21.71,0,23.36,0,.25,0,.44,0,.49.13s.15.57-.17,1.4c-.75,1.59-4.3,9.78-4.75,10.5-.07.1-.13.21-.19.31-.29.51-.39.68-1.38.68H11.66C10.74,13.32,7.54,2,7.39,1.41l0-.1C6.82.07,5.59,0,4.28,0H.76A.76.76,0,0,0,0,.76a.76.76,0,0,0,.76.77H4.28a1.9,1.9,0,0,1,1.65,1.1c.28,1,4.14,13.94,4.46,15.34.58,2.54,2.12,4.2,4.24,4.2H28.89a.77.77,0,1,0,0-1.53H14.63a2.87,2.87,0,0,1-2.56-2.35H28.55a2.57,2.57,0,0,0,2.7-1.43l.16-.26c.49-.77,4.06-9,4.86-10.72A3.06,3.06,0,0,0,36.3,3ZM28.74,22.92a3.57,3.57,0,1,0,3.57,3.57A3.57,3.57,0,0,0,28.74,22.92Zm0,5.67a2.1,2.1,0,1,1,2.1-2.1A2.1,2.1,0,0,1,28.74,28.59Z"/></g></g></g></svg>