<svg xmlns="http://www.w3.org/2000/svg" viewBox="0 0 45.17 44.74"><defs><style>.cls-1{fill:#00aeef;}</style></defs><title>Asset 146</title><g id="Layer_2" data-name="Layer 2"><g id="Layer_1-2" data-name="Layer 1"><path class="cls-1" d="M36,15.37H9.12V13.43H36ZM26.21,6.45H9.12V8.38H26.21ZM36,18.38H9.12v1.93H36Zm9.21-1.13V39.5a5.25,5.25,0,0,1-5.24,5.24H5.24A5.25,5.25,0,0,1,0,39.5V17.25a4.83,4.83,0,0,1,.09-.94A2.29,2.29,0,0,1,.16,16a6.09,6.09,0,0,1,.17-.61c0-.1.09-.19.14-.29s.16-.36.25-.52.13-.18.19-.27a3.72,3.72,0,0,1,.34-.47,2.34,2.34,0,0,1,.22-.23c.13-.13.26-.27.41-.4l.25-.18a5.25,5.25,0,0,1,.49-.33l.28-.15c.17-.08.35-.17.54-.24l.14-.05V4.36A4.36,4.36,0,0,1,7.94,0H37.22a4.36,4.36,0,0,1,4.36,4.36v7.93l.06,0a3.76,3.76,0,0,1,.46.2l.38.17c.15.09.27.19.41.28a4.15,4.15,0,0,1,.34.24,2.9,2.9,0,0,1,.36.34c.1.1.21.19.3.29s.2.27.3.41.16.21.23.32.16.33.24.49.12.22.17.34.11.39.16.58.07.21.09.32a5,5,0,0,1,.09,1m-3.59,1.11,1.84-1.13a3.68,3.68,0,0,0-.05-.58h0a4.74,4.74,0,0,0-.15-.57c0-.13-.11-.25-.17-.37a1,1,0,0,1-.07-.15,3.41,3.41,0,0,0-.3-.44s0,0,0,0a3.33,3.33,0,0,0-1.08-.89ZM5.32,19.42l6.39,3.91H29.85v1.93h-15l3.43,2.09h0L22.58,30l4.29-2.62h0l13-7.93V4.36a2.63,2.63,0,0,0-2.62-2.62H7.94A2.63,2.63,0,0,0,5.32,4.36ZM1.75,17.23l1.83,1.12V14.2a3.13,3.13,0,0,0-.36.22l-.1.07-.31.27-.11.11a3.47,3.47,0,0,0-.25.29l-.11.16c-.06.1-.13.19-.18.29l-.11.24a2,2,0,0,0-.11.26,2.25,2.25,0,0,0-.09.35,1.46,1.46,0,0,0-.05.2,2.69,2.69,0,0,0-.05.57m0,20.25,14.89-9.1L1.74,19.28Zm41.68,2L26.87,29.4,22.58,32,18.3,29.4,1.75,39.52c0,.13,0,.25,0,.37s0,.22,0,.32a3.18,3.18,0,0,0,.1.33c0,.11.06.22.1.33s.1.17.15.26a2.11,2.11,0,0,0,.18.33,1,1,0,0,0,.16.19,2.1,2.1,0,0,0,.26.33l.18.14a3,3,0,0,0,.34.28,2.25,2.25,0,0,0,.21.12,3.48,3.48,0,0,0,.38.2,2,2,0,0,0,.35.11l.31.1a4,4,0,0,0,.7.07H39.93a4.05,4.05,0,0,0,.7-.07l.31-.1a2,2,0,0,0,.35-.11,2.64,2.64,0,0,0,.37-.2,2.39,2.39,0,0,0,.22-.12,2.88,2.88,0,0,0,.33-.28c.06,0,.13-.09.18-.14a3,3,0,0,0,.27-.33c.05-.06.11-.12.16-.19a3.47,3.47,0,0,0,.18-.33c0-.09.11-.17.15-.26s.06-.22.1-.33a1.66,1.66,0,0,0,.13-.65,2.21,2.21,0,0,0,0-.37m0-20.25L28.54,28.38l14.88,9.1Z"/></g></g></svg>