<svg xmlns="http://www.w3.org/2000/svg" viewBox="0 0 15 18.65"><defs><style>.cls-1{fill:#00aeef;}</style></defs><title>Asset 127</title><g id="Layer_2" data-name="Layer 2"><g id="Layer_1-2" data-name="Layer 1"><circle class="cls-1" cx="4.68" cy="1.51" r="1.51"/><path class="cls-1" d="M9.84,14.35A4.36,4.36,0,1,1,3.33,9.28V7.74a5.72,5.72,0,1,0,7.11,8.41,1,1,0,0,1-.16-.33Z"/><path class="cls-1" d="M15,14.68A1,1,0,0,0,13.81,14l-1.57.4L11.82,13,11,10.13a.94.94,0,0,0-.91-.69H5.64V7.32H9.56a1,1,0,1,0,0-1.9H5.64V4.6a1,1,0,0,0-1.91,0v5.8a1,1,0,0,0,.95.95H9.37l.87,3,.43,1.47a1.29,1.29,0,0,0,.17.33,1,1,0,0,0,.75.36,1,1,0,0,0,.24,0l2.46-.64A1,1,0,0,0,15,14.68Z"/><path class="cls-1" d="M12.6,8.85H7.79a.49.49,0,0,1,0-1H12.6a.49.49,0,0,1,0,1Z"/><path class="cls-1" d="M12.6,8.85l-.12,0a.48.48,0,0,1-.35-.58l1.35-5.2a.47.47,0,0,1,.58-.34.48.48,0,0,1,.35.58l-1.35,5.2A.48.48,0,0,1,12.6,8.85Z"/></g></g></svg>