<svg xmlns="http://www.w3.org/2000/svg" viewBox="0 0 16.15 25.05"><defs><style>.cls-1{fill:#00aeef;fill-rule:evenodd;}</style></defs><title>Asset 26</title><g id="Layer_2" data-name="Layer 2"><g id="Layer_1-2" data-name="Layer 1"><g id="Location"><path class="cls-1" d="M8.07,21.75a.58.58,0,0,0,.44-.21c.31-.37,7.64-9.17,7.64-13.47A8.08,8.08,0,0,0,0,8.07c0,4.3,7.33,13.1,7.64,13.47A.56.56,0,0,0,8.07,21.75Zm0-20.62A7,7,0,0,1,15,8.07c0,3.34-5.36,10.25-6.94,12.21-1.58-2-6.94-8.87-6.94-12.21A7,7,0,0,1,8.07,1.13Zm3.46,6.31a3.35,3.35,0,1,0-3.35,3.35A3.35,3.35,0,0,0,11.53,7.44ZM6,7.44A2.22,2.22,0,1,1,8.18,9.66,2.23,2.23,0,0,1,6,7.44Zm5.93,11.48a.57.57,0,0,0-.67.44.56.56,0,0,0,.44.67c2.2.45,3.35,1.23,3.35,1.78,0,.86-2.7,2.11-6.94,2.11s-6.94-1.25-6.94-2.11c0-.56,1.18-1.35,3.42-1.79a.57.57,0,1,0-.22-1.11C1.58,19.45,0,20.51,0,21.81c0,2.12,4.06,3.24,8.07,3.24s8.08-1.12,8.08-3.24C16.15,20.52,14.59,19.47,11.89,18.92Z"/></g></g></g></svg>