<svg xmlns="http://www.w3.org/2000/svg" viewBox="0 0 150 53"><defs><style>.cls-1{fill:#fff;}</style></defs><title>menu_mob</title><g id="Layer_2" data-name="Layer 2"><g id="Layer_1-2" data-name="Layer 1"><path class="cls-1" d="M75,52.5A38.93,38.93,0,0,1,39.78,30.38C39.11,29,21.2,5.65,5.66.5H140.81a39.48,39.48,0,0,0-28.12,23.11s0,.13-.11.33a67.16,67.16,0,0,1-2.36,6.44A38.93,38.93,0,0,1,75,52.5Z"/><path class="cls-1" d="M137,1a39.76,39.76,0,0,0-24.8,22.41s0,.15-.13.38a64.92,64.92,0,0,1-2.33,6.37,38.6,38.6,0,0,1-69.54,0C39.57,28.76,23.62,7.66,8.42,1H137m13-1H0C16,0,38.35,28.51,39.32,30.59a39.61,39.61,0,0,0,71.36,0c1-2.08,2.44-6.7,2.47-6.79C119.25,9.27,134,0,150,0Z"/></g></g></svg>