<svg xmlns="http://www.w3.org/2000/svg" viewBox="0 0 16.4 29.16"><defs><style>.cls-1{fill:#00aeef;}</style></defs><title>Asset 14</title><g id="Layer_2" data-name="Layer 2"><g id="Layer_1-2" data-name="Layer 1"><path class="cls-1" d="M7.29,20v7.36H1.37a.92.92,0,0,0,0,1.83H15a.92.92,0,0,0,0-1.83H9.11V20c3.8-.53,7.29-4.29,7.29-8.13a.91.91,0,0,0-1.82,0A6.91,6.91,0,0,1,8.2,18.22a6.91,6.91,0,0,1-6.38-6.38.91.91,0,0,0-1.82,0c0,3.84,3.49,7.6,7.29,8.13"/><path class="cls-1" d="M8.2,16.4a4.57,4.57,0,0,0,4.56-4.56V4.55a4.56,4.56,0,0,0-9.12,0v7.29A4.57,4.57,0,0,0,8.2,16.4m0-14.58a2.73,2.73,0,0,1,2.73,2.73V5H10a.91.91,0,0,0,0,1.82h.91V8.65H10a.92.92,0,0,0,0,1.83h.91v1.36a2.73,2.73,0,1,1-5.46,0V10.48h.91a.92.92,0,0,0,0-1.83H5.47V6.83h.91A.91.91,0,1,0,6.38,5H5.47V4.55A2.73,2.73,0,0,1,8.2,1.82"/></g></g></svg>