<svg xmlns="http://www.w3.org/2000/svg" viewBox="0 0 21.87 29.15"><defs><style>.cls-1{fill:#00aeef;}</style></defs><title>Asset 19</title><g id="Layer_2" data-name="Layer 2"><g id="Layer_1-2" data-name="Layer 1"><path class="cls-1" d="M4.55,29.15A4.56,4.56,0,0,0,9.11,24.6V11.67L20,9.33v8.9a4.89,4.89,0,0,0-2.73-.92,4.56,4.56,0,1,0,4.56,4.56V8.19h0V.91A.93.93,0,0,0,21.53.2.93.93,0,0,0,20.76,0L8,2.75a.92.92,0,0,0-.72.89v7.3h0V21A4.92,4.92,0,0,0,4.55,20a4.56,4.56,0,0,0,0,9.11M17.31,24.6A2.74,2.74,0,1,1,20,21.87a2.73,2.73,0,0,1-2.73,2.73M20,2V7.46L9.11,9.8V4.38ZM4.56,21.87A2.73,2.73,0,1,1,1.82,24.6a2.73,2.73,0,0,1,2.74-2.73"/></g></g></svg>