<svg xmlns="http://www.w3.org/2000/svg" viewBox="0 0 27.38 27.44"><defs><style>.cls-1{fill:#00aeef;}</style></defs><title>Asset 28</title><g id="Layer_2" data-name="Layer 2"><g id="Layer_1-2" data-name="Layer 1"><path class="cls-1" d="M27.38,5.34V9.56h0V24.28a3.18,3.18,0,0,1-3.17,3.16h-21A3.17,3.17,0,0,1,0,24.28V5.34A3.17,3.17,0,0,1,3.17,2.18H5.11V1.72a1.72,1.72,0,1,1,3.43,0v.46H18.83V1.72a1.72,1.72,0,1,1,3.43,0v.46h1.95a3.18,3.18,0,0,1,3.17,3.16M19.89,2.18V4.29a.66.66,0,0,0,1.32,0V1.72a.66.66,0,0,0-1.32,0Zm-13.72,0h0V4.29a.66.66,0,1,0,1.32,0V1.72a.66.66,0,0,0-1.32,0ZM1.05,8.51H26.32V5.34a2.12,2.12,0,0,0-2.11-2.11H22.26V4.29a1.72,1.72,0,0,1-3.43,0V3.23H8.54V4.29a1.72,1.72,0,0,1-3.43,0V3.23H3.17A2.12,2.12,0,0,0,1.05,5.34ZM26.32,9.56H1.05V24.28a2.12,2.12,0,0,0,2.12,2.11h21a2.12,2.12,0,0,0,2.11-2.11Z"/><circle class="cls-1" cx="20.55" cy="13.78" r="1.47"/><circle class="cls-1" cx="13.69" cy="13.78" r="1.47"/><circle class="cls-1" cx="6.83" cy="13.78" r="1.47"/><circle class="cls-1" cx="20.55" cy="20.67" r="1.47"/><circle class="cls-1" cx="13.69" cy="20.67" r="1.47"/><circle class="cls-1" cx="6.83" cy="20.67" r="1.47"/></g></g></svg>