<svg xmlns="http://www.w3.org/2000/svg" viewBox="0 0 28.94 28.94"><defs><style>.cls-1{fill:#fff;}</style></defs><title>Asset 128</title><g id="Layer_2" data-name="Layer 2"><g id="Layer_1-2" data-name="Layer 1"><path class="cls-1" d="M11.77,23.6a11.68,11.68,0,0,1-8.33-3.46,11.82,11.82,0,0,1,0-16.68,11.75,11.75,0,0,1,16.65,0,11.82,11.82,0,0,1,0,16.68A11.67,11.67,0,0,1,11.77,23.6Zm0-21.6A9.69,9.69,0,0,0,4.86,4.87a9.83,9.83,0,0,0,0,13.86,9.74,9.74,0,0,0,13.81,0,9.81,9.81,0,0,0,0-13.86h0A9.67,9.67,0,0,0,11.77,2Z"/><path class="cls-1" d="M27.94,28.94a1,1,0,0,1-.7-.29l-8.35-8.37a1,1,0,0,1,0-1.41,1,1,0,0,1,1.42,0l8.34,8.37a1,1,0,0,1,0,1.41A1,1,0,0,1,27.94,28.94Z"/></g></g></svg>