<svg xmlns="http://www.w3.org/2000/svg" viewBox="0 0 38.35 25.61"><defs><style>.cls-1{fill:#00aeef;fill-rule:evenodd;}</style></defs><title>Asset 10</title><g id="Layer_2" data-name="Layer 2"><g id="Layer_1-2" data-name="Layer 1"><g id="View"><path class="cls-1" d="M38.3,12.53a.82.82,0,0,0-.16-.25C29,.32,21.85.09,19.18,0h-.36C15.49,0,8.65,1.58.27,12.18a.85.85,0,0,0,0,1.23C8.65,24,15.49,25.61,18.82,25.61h.36c2.67-.09,9.76-.32,18.94-12.26a.78.78,0,0,0,.23-.45A.92.92,0,0,0,38.3,12.53ZM19.13,24.08h-.31c-3,0-9.22-1.47-17.1-11.27C9.6,3,15.8,1.53,18.82,1.53h.31c2.45.08,8.89.29,17.48,11.27C28,23.79,21.58,24,19.13,24.08Zm.24-18.6a7.33,7.33,0,1,0,7.33,7.33A7.33,7.33,0,0,0,19.37,5.48Zm0,13.13a5.81,5.81,0,1,1,5.8-5.8A5.81,5.81,0,0,1,19.37,18.61Zm-2.12-10a1.4,1.4,0,1,0,1.4,1.4A1.39,1.39,0,0,0,17.25,8.64Z"/></g></g></g></svg>