<svg xmlns="http://www.w3.org/2000/svg" xmlns:xlink="http://www.w3.org/1999/xlink" viewBox="0 0 350.16 72.87"><defs><style>.cls-1{fill:#00aeef;}.cls-2{fill:#fff;}.cls-3{fill:#0098d1;}.cls-4{fill:#f7e1c3;}.cls-5{fill:#fef7e7;}.cls-6{fill:url(#radial-gradient);}</style><radialGradient id="radial-gradient" cx="-725.66" cy="13.66" r="7.87" gradientTransform="matrix(-1, -0.02, -0.02, 1, -402.94, -1.71)" gradientUnits="userSpaceOnUse"><stop offset="0" stop-color="#18a9d6"/><stop offset="0.27" stop-color="#18a7d3"/><stop offset="0.46" stop-color="#16a0ca"/><stop offset="0.64" stop-color="#1495ba"/><stop offset="0.8" stop-color="#1185a4"/><stop offset="0.94" stop-color="#0e7187"/><stop offset="1" stop-color="#0c687a"/></radialGradient></defs><title>t_logo_1</title><g id="Layer_2" data-name="Layer 2"><g id="Layer_1-2" data-name="Layer 1"><path class="cls-1" d="M1.58,34.49H9l1.8-8.06,13.68-3.68L21.89,34.49h8.93l-1.59,9.07H19.8L17.57,54a34.91,34.91,0,0,0-1.08,6.49,4,4,0,0,0,4.25,4.17,12.8,12.8,0,0,0,4.17-1.08l-1.44,8.57a52.55,52.55,0,0,1-8.06.72c-6.63,0-11.88-3.24-11.88-11.09a35.73,35.73,0,0,1,1.15-7.7L6.91,43.56H0Z"/><path class="cls-1" d="M37.94,34.49H51.05L43.27,72H30.17Zm3.32-15.63h13.1l-2,9.51H39.24Z"/><path class="cls-1" d="M83.38,71.43a35.09,35.09,0,0,1-11.09,1.44c-11,0-17.72-7.71-17.72-17.14,0-12.31,9.8-22.1,24.2-22.1a34.39,34.39,0,0,1,11.81,2.52l-2.81,9a20,20,0,0,0-8.35-2c-6.7,0-11.45,4.32-11.45,12.1,0,4.46,3.45,8.13,8.93,8.13a20.15,20.15,0,0,0,8.35-1.65Z"/><path class="cls-1" d="M100.37,18h13.1l-6.91,32.26h.14l12.46-15.77h14.76L118.44,52.56,128.16,72h-14.4l-7.7-18.58h-.15L102,72H88.77Z"/><path class="cls-2" d="M137.52,34.49h7.42l1.79-8.06,13.69-3.68-2.6,11.74h8.93l-1.58,9.07h-9.43L153.5,54a35.77,35.77,0,0,0-1.08,6.49,4,4,0,0,0,4.25,4.17,12.92,12.92,0,0,0,4.18-1.08l-1.44,8.57a52.68,52.68,0,0,1-8.07.72c-6.62,0-11.88-3.24-11.88-11.09a35.73,35.73,0,0,1,1.15-7.7l2.24-10.52h-6.92Z"/><path class="cls-2" d="M190.66,66.75l-.15-.14v.14c-2.74,4.32-7.56,6.12-12.6,6.12-8.06,0-12.53-3.6-12.53-10.87,0-9.22,9.22-13.76,20.67-13.76,2.59,0,5.18.22,7,.36a5.14,5.14,0,0,0,.15-1.51c0-2.66-2.67-4.82-6.92-4.82a23.63,23.63,0,0,0-12.17,2.95l1.3-9.43a40.39,40.39,0,0,1,13.75-2.16c8.93,0,16.28,3.52,16.28,12.74,0,5.91-3.32,14.33-4.76,25.64H190.08ZM182,64.23c5.55,0,8.86-3.82,9.8-8.86a20.8,20.8,0,0,0-3.46-.21c-6.19-.22-10.73,2-10.73,5.33A4.14,4.14,0,0,0,182,64.23Z"/><path class="cls-2" d="M239.33,71.43a35.09,35.09,0,0,1-11.09,1.44c-11,0-17.72-7.71-17.72-17.14,0-12.31,9.8-22.1,24.2-22.1a34.39,34.39,0,0,1,11.81,2.52l-2.81,9a20,20,0,0,0-8.35-2c-6.7,0-11.45,4.32-11.45,12.1,0,4.46,3.45,8.13,8.93,8.13a20.15,20.15,0,0,0,8.35-1.65Z"/><path class="cls-2" d="M256.32,18h13.1l-6.91,32.26h.14l12.46-15.77h14.76L274.39,52.56,284.11,72h-14.4L262,53.43h-.15L257.9,72H244.72Z"/><path class="cls-3" d="M348,15.59A28.67,28.67,0,0,0,332.37,1.75c-.91-.34-1.83-.63-2.76-.88A21.3,21.3,0,0,0,318.13.71a29,29,0,0,1,4.26.3c1,.15,2,.34,2.94.58a29.63,29.63,0,0,1,17.59,12.32,21.45,21.45,0,0,1,3.39,12,41.29,41.29,0,0,1-2.22,11.63,102.92,102.92,0,0,1-9.84,20.72q-1.37,2.28-2.8,4.53,1.89-2.38,3.69-4.81a100.86,100.86,0,0,0,11.54-19.2A40.84,40.84,0,0,0,350,27.63,21.31,21.31,0,0,0,348,15.59Z"/><path class="cls-1" d="M344.09,37.51a41.29,41.29,0,0,0,2.22-11.63,21.45,21.45,0,0,0-3.39-12A29.63,29.63,0,0,0,325.33,1.59c-1-.24-1.95-.43-2.94-.58a29,29,0,0,0-4.26-.3A29.12,29.12,0,0,0,308.53,5a27.15,27.15,0,0,0-10.07,12.13,21,21,0,0,0-1.37,10.55,39.42,39.42,0,0,0,2.78,9.87,77.76,77.76,0,0,0,5,9.93A139.71,139.71,0,0,0,317,64.51q3,3.7,6.26,7.24l.24.26q3.15-3.41,6.1-7c.61-.74,1.21-1.51,1.81-2.26q1.44-2.25,2.8-4.53A102.92,102.92,0,0,0,344.09,37.51Zm-20.16,3.17c-7.91,1.58-14.31-9.53-15.56-15.56-1.74-8.41,7-15.55,15.56-15.55s17.5,7.19,15.55,15.55C338,31.59,331.22,39.22,323.93,40.68Z"/><path class="cls-4" d="M323.93,9.57c-8.59,0-17.3,7.14-15.56,15.55,1.25,6,7.65,17.14,15.56,15.56,7.29-1.46,14.05-9.09,15.55-15.56C341.43,16.76,332.52,9.57,323.93,9.57ZM335.29,24.7c-1.25,5.38-6.88,11.73-13,13-6.59,1.32-11.92-7.93-13-12.95-1.45-7,5.8-12.95,13-12.95S336.91,17.73,335.29,24.7Z"/><path class="cls-5" d="M322.34,11.75c-7.16,0-14.41,5.94-13,13,1,5,6.37,14.27,13,13,6.07-1.22,11.7-7.57,13-12.95C336.91,17.73,329.49,11.75,322.34,11.75Zm6,18.64A7.86,7.86,0,0,1,315,22.33a3.64,3.64,0,0,1-.09-.83,3.14,3.14,0,0,1,3.51-3.13,7.66,7.66,0,0,1,2.63-.94,7.87,7.87,0,0,1,7.2,13Z"/><path class="cls-5" d="M321.09,17.43a7.66,7.66,0,0,0-2.63.94,3.11,3.11,0,0,1,3.08,2.74,3.74,3.74,0,0,1,.89-.09,4.09,4.09,0,1,1-4.16,4,2.48,2.48,0,0,1,0-.27A3.17,3.17,0,0,1,315,22.33a7.87,7.87,0,0,0-.56,2.73,7.89,7.89,0,1,0,6.61-7.63Z"/><path class="cls-6" d="M321.09,17.43a7.66,7.66,0,0,0-2.63.94,3.11,3.11,0,0,1,3.08,2.74,3.74,3.74,0,0,1,.89-.09,4.09,4.09,0,1,1-4.16,4,2.48,2.48,0,0,1,0-.27A3.17,3.17,0,0,1,315,22.33a7.87,7.87,0,0,0-.56,2.73,7.89,7.89,0,1,0,6.61-7.63Z"/><path d="M318.3,24.76a2.48,2.48,0,0,0,0,.27,4.09,4.09,0,1,0,4.16-4,3.74,3.74,0,0,0-.89.09,4.21,4.21,0,0,1,0,.51A3.13,3.13,0,0,1,318.3,24.76Z"/><path class="cls-2" d="M318.46,18.37A3.14,3.14,0,0,0,315,21.5a3.64,3.64,0,0,0,.09.83A8.07,8.07,0,0,1,318.46,18.37Z"/><path class="cls-2" d="M318.3,24.76a4.14,4.14,0,0,1,3.24-3.65,3.11,3.11,0,0,0-3.08-2.74,8.07,8.07,0,0,0-3.42,4A3.17,3.17,0,0,0,318.3,24.76Z"/><path class="cls-2" d="M318.3,24.76a3.13,3.13,0,0,0,3.28-3.14,4.21,4.21,0,0,0,0-.51A4.14,4.14,0,0,0,318.3,24.76Z"/></g></g></svg>